PathFileType	4	(X/Y/Z)	s11c0102.trc
DataRate	CameraRate	NumFrames	NumMarkers	Units	OrigDataRate	OrigDataStartFrame	OrigNumFrames
200	200	4	48	mm	200	0	2000
Frame#	Time	racr			lacr			c7			jug			rlel			rdr			llel			ldr			s2			lic			ric			lasi			rasi			rpsi			lpsi			rgt			lgt			rth1			rth2			rth3			rth4			rlfc			rmfc			rsh1			rsh2			rsh3			rsh4			rlmal			rcal			rtoe			rmt5			lth1			lth2			lth4			lth3			llfc			lmfc			llmal			lcal			lmt5			lsh1			lsh2			lsh3			lsh4			ltoe			SBIKE			LBIKE			RBIKE			
		X1	Y1	Z1	X2	Y2	Z2	X3	Y3	Z3	X4	Y4	Z4	X5	Y5	Z5	X6	Y6	Z6	X7	Y7	Z7	X8	Y8	Z8	X9	Y9	Z9	X10	Y10	Z10	X11	Y11	Z11	X12	Y12	Z12	X13	Y13	Z13	X14	Y14	Z14	X15	Y15	Z15	X16	Y16	Z16	X17	Y17	Z17	X18	Y18	Z18	X19	Y19	Z19	X20	Y20	Z20	X21	Y21	Z21	X22	Y22	Z22	X23	Y23	Z23	X24	Y24	Z24	X25	Y25	Z25	X26	Y26	Z26	X27	Y27	Z27	X28	Y28	Z28	X29	Y29	Z29	X30	Y30	Z30	X31	Y31	Z31	X32	Y32	Z32	X33	Y33	Z33	X34	Y34	Z34	X35	Y35	Z35	X36	Y36	Z36	X37	Y37	Z37	X38	Y38	Z38	X39	Y39	Z39	X40	Y40	Z40	X41	Y41	Z41	X42	Y42	Z42	X43	Y43	Z43	X44	Y44	Z44	X45	Y45	Z45	X46	Y46	Z46	X47	Y47	Z47	X48	Y48	Z48	
0	0.0000	439.813646	1383.196955	-107.694276	426.336587	1396.452293	-428.389908	364.083460	1516.443854	-266.502320	396.970357	1347.713164	-271.693678	577.738667	1153.530692	-55.785281	779.259371	925.557605	-97.489708	541.594175	1130.355949	-492.391262	780.585533	913.240671	-445.519118	-147.273628	1200.072531	-240.887168	62.910272	1223.281926	-451.303658	76.117397	1213.792281	-51.243497	93.936798	1145.917749	-419.198312	104.818383	1149.262081	-86.713007	-103.467002	1271.557122	-189.983406	-111.179579	1265.273706	-285.154610	24.047209	1064.071874	-29.266964	-13.766673	1090.390956	-461.383598	144.142542	981.325409	-22.108341	230.890794	958.346581	-24.347876	292.391398	896.968941	-36.142193	248.541412	989.901866	-34.316962	381.620460	829.116020	-50.741852	391.057798	818.788305	-182.260450	280.236504	710.154952	-50.159011	233.577917	639.503621	-75.914563	157.659155	597.171592	-81.593938	252.387587	628.032403	-109.140419	51.316695	523.621354	-101.113547	-15.312484	542.662303	-150.322920	208.188456	362.916173	-148.895947	136.531698	378.032002	-78.642672	103.403633	990.157565	-482.913132	180.228510	952.299358	-479.313586	205.055034	978.519810	-469.745830	229.186087	876.836124	-475.503364	329.610706	774.673289	-449.546284	346.077146	770.053062	-324.208238	264.543571	350.142977	-422.801827	210.222012	309.159202	-386.935815	410.617238	256.127334	-457.066640	303.969045	648.802589	-468.247626	319.498072	565.045080	-455.545998	291.144843	481.674123	-449.448840	351.614573	565.237300	-434.455884	507.099544	279.331460	-389.727876	-216.314058	953.997444	-256.226683	-17.981102	80.970809	-460.678960	-17.868368	80.845734	-62.000382	
1	0.0050	439.705698	1383.087979	-107.685226	426.264613	1396.414710	-428.385684	363.949116	1516.432711	-266.512122	396.859284	1347.696304	-271.697692	577.634729	1153.455869	-55.748943	779.243181	925.545523	-97.454428	541.543744	1130.354707	-492.362680	780.557573	913.255389	-445.499621	-147.345317	1200.027502	-240.883036	62.747645	1223.303946	-451.255895	76.015664	1213.798745	-51.245152	93.847471	1145.962673	-419.232145	104.738299	1149.267694	-86.713722	-103.601045	1271.538148	-189.963900	-111.271262	1265.249119	-285.168825	23.966306	1064.041692	-29.275483	-13.819784	1090.418244	-461.399386	144.037614	981.265841	-22.124892	230.805099	958.259484	-24.364949	292.260335	896.874947	-36.124951	248.423069	989.789236	-34.322468	381.459587	829.004696	-50.740685	390.888807	818.623195	-182.228834	280.073287	710.015678	-50.156827	233.462760	639.344317	-75.915268	157.525460	597.027333	-81.603089	252.239864	627.885773	-109.129934	51.194317	523.417648	-101.105226	-15.374943	542.251021	-150.382336	208.107987	362.741961	-148.892413	136.444095	377.863337	-78.649887	103.402533	990.252123	-482.909084	180.267674	952.440609	-479.291860	205.072280	978.637110	-469.731446	229.244479	877.011044	-475.522539	329.725503	774.866955	-449.545908	346.203179	770.222997	-324.221837	264.618331	350.340990	-422.797665	210.308952	309.357030	-386.957907	410.712939	256.381231	-457.077657	304.068619	648.983283	-468.256315	319.569241	565.192331	-455.570707	291.235075	481.810132	-449.468284	351.732548	565.406005	-434.437744	507.176865	279.489598	-389.737637	-216.319325	953.987189	-256.226977	-17.999763	81.051431	-460.641879	-17.871064	80.850775	-62.003067	
2	0.0100	439.590036	1383.022086	-107.678185	426.146023	1396.412582	-428.366301	363.836119	1516.437749	-266.468424	396.733717	1347.701603	-271.683787	577.553801	1153.372885	-55.673386	779.231613	925.552966	-97.421184	541.485171	1130.343190	-492.340351	780.555067	913.268134	-445.502647	-147.435687	1199.994799	-240.879775	62.590836	1223.279141	-451.159460	75.894127	1213.805217	-51.244347	93.730138	1145.969113	-419.206246	104.657153	1149.296605	-86.684750	-103.707580	1271.514182	-189.975164	-111.388953	1265.207033	-285.160914	23.907306	1064.000859	-29.292780	-13.885821	1090.431935	-461.393941	143.934346	981.179369	-22.137816	230.708975	958.185080	-24.348231	292.107112	896.784565	-36.104432	248.325549	989.693981	-34.299583	381.289173	828.803468	-50.739490	390.706999	818.449105	-182.182175	279.931685	709.844659	-50.156265	233.307874	639.190917	-75.903316	157.374211	596.885281	-81.592572	252.121423	627.720476	-109.116667	51.081592	523.188570	-101.108800	-15.552792	542.155070	-150.349023	208.006122	362.589408	-148.865463	136.349316	377.693796	-78.628372	103.408527	990.345704	-482.904992	180.303578	952.548895	-479.289307	205.090027	978.748486	-469.717856	229.313217	877.162496	-475.533019	329.821222	775.055974	-449.565065	346.279122	770.405334	-324.231779	264.685386	350.494838	-422.803807	210.390182	309.583590	-386.984445	410.806585	256.582049	-457.082811	304.150130	649.153933	-468.274786	319.672911	565.365234	-455.573429	291.314995	482.001616	-449.497941	351.830362	565.551525	-434.434262	507.242743	279.700753	-389.753922	-216.324768	953.988382	-256.234850	-17.984563	80.983252	-460.668353	-17.817307	80.852909	-62.076897	
3	0.0150	439.472795	1382.950937	-107.673136	426.047270	1396.387048	-428.372216	363.716526	1516.458023	-266.534265	396.311061	1345.518207	-272.660646	577.467449	1153.294344	-55.584289	779.227590	925.554462	-97.412146	541.425310	1130.349987	-492.316751	780.526818	913.281767	-445.513617	-147.539893	1199.954698	-240.862855	62.490247	1223.323589	-451.224314	75.849602	1213.789982	-51.203308	93.622148	1145.957393	-419.206451	104.582181	1149.302862	-86.676020	-103.822574	1271.500154	-189.972488	-111.479209	1265.180033	-285.167421	23.834891	1063.964516	-29.317818	-13.925779	1090.438861	-461.402874	143.831215	981.121419	-22.128435	230.622741	958.117025	-24.348574	291.981422	896.679135	-36.110744	248.238809	989.589172	-34.302765	381.123246	828.687037	-50.749691	390.510705	818.240806	-182.178257	279.765353	709.680786	-50.154712	233.177582	638.952714	-75.881330	157.233607	596.743980	-81.593826	252.679724	628.138624	-108.377522	50.974707	523.000782	-101.086763	-15.688468	541.981210	-150.340737	207.908882	362.451998	-148.845220	136.234968	377.555344	-78.626603	103.400581	990.414408	-482.911045	180.311121	952.666710	-479.301523	205.056103	978.963134	-469.790391	229.385549	877.299141	-475.536693	329.920260	775.236786	-449.609438	346.403254	770.579900	-324.264681	264.753258	350.611844	-422.889390	210.471153	309.749461	-387.008191	410.903014	256.709615	-457.073649	304.253079	649.340397	-468.274319	319.792679	565.565467	-455.579880	291.384600	482.185390	-449.507503	351.960922	565.754487	-434.514722	507.330164	279.880463	-389.764729	-216.334420	953.985146	-256.235201	-17.998469	81.051153	-460.638388	-17.877840	80.847448	-62.005236	
